<?xml version="1.0" encoding="utf-8"?>
<!-- Generator: Adobe Illustrator 15.0.0, SVG Export Plug-In . SVG Version: 6.00 Build 0)  -->
<!DOCTYPE svg PUBLIC "-//W3C//DTD SVG 1.1//EN" "http://www.w3.org/Graphics/SVG/1.1/DTD/svg11.dtd">
<svg version="1.1" id="Layer_1" xmlns="http://www.w3.org/2000/svg" xmlns:xlink="http://www.w3.org/1999/xlink" x="0px" y="0px"
	 width="95.088px" height="95.089px" viewBox="0 0 95.088 95.089" enable-background="new 0 0 95.088 95.089" xml:space="preserve">
<g>
	<circle fill="none" cx="47.544" cy="47.544" r="47.544"/>
	<g>
		<g>
			
				<line fill="none" stroke="#17191B" stroke-width="0.5" stroke-miterlimit="10" x1="47.539" y1="92.194" x2="47.549" y2="86.895"/>
			<line fill="none" stroke="#17191B" stroke-width="0.5" stroke-miterlimit="10" x1="47.548" y1="2.905" x2="47.541" y2="8.204"/>
		</g>
		<g>
			
				<line fill="none" stroke="#17191B" stroke-width="0.5" stroke-miterlimit="10" x1="51.431" y1="92.025" x2="50.979" y2="86.744"/>
			<line fill="none" stroke="#17191B" stroke-width="0.5" stroke-miterlimit="10" x1="43.656" y1="3.075" x2="44.112" y2="8.354"/>
		</g>
		<g>
			
				<line fill="none" stroke="#17191B" stroke-width="0.5" stroke-miterlimit="10" x1="55.291" y1="91.518" x2="54.381" y2="86.296"/>
			<line fill="none" stroke="#17191B" stroke-width="0.5" stroke-miterlimit="10" x1="39.795" y1="3.583" x2="40.709" y2="8.802"/>
		</g>
		<g>
			
				<line fill="none" stroke="#17191B" stroke-width="0.5" stroke-miterlimit="10" x1="59.094" y1="90.675" x2="57.731" y2="85.552"/>
			<line fill="none" stroke="#17191B" stroke-width="0.5" stroke-miterlimit="10" x1="35.992" y1="4.425" x2="37.358" y2="9.545"/>
		</g>
		<g>
			<line fill="none" stroke="#17191B" stroke-width="0.5" stroke-miterlimit="10" x1="62.81" y1="89.503" x2="61.006" y2="84.521"/>
			<line fill="none" stroke="#17191B" stroke-width="0.5" stroke-miterlimit="10" x1="32.278" y1="5.596" x2="34.084" y2="10.578"/>
		</g>
		<g>
			
				<line fill="none" stroke="#17191B" stroke-width="0.5" stroke-miterlimit="10" x1="66.406" y1="88.014" x2="64.177" y2="83.207"/>
			<line fill="none" stroke="#17191B" stroke-width="0.5" stroke-miterlimit="10" x1="28.68" y1="7.086" x2="30.913" y2="11.892"/>
		</g>
		<g>
			<line fill="none" stroke="#17191B" stroke-width="0.5" stroke-miterlimit="10" x1="69.86" y1="86.216" x2="67.222" y2="81.623"/>
			<line fill="none" stroke="#17191B" stroke-width="0.5" stroke-miterlimit="10" x1="25.225" y1="8.885" x2="27.869" y2="13.477"/>
		</g>
		<g>
			
				<line fill="none" stroke="#17191B" stroke-width="0.5" stroke-miterlimit="10" x1="73.146" y1="84.125" x2="70.115" y2="79.777"/>
			
				<line fill="none" stroke="#17191B" stroke-width="0.5" stroke-miterlimit="10" x1="21.939" y1="10.977" x2="24.975" y2="15.321"/>
		</g>
		<g>
			
				<line fill="none" stroke="#17191B" stroke-width="0.5" stroke-miterlimit="10" x1="76.235" y1="81.753" x2="72.839" y2="77.688"/>
			<line fill="none" stroke="#17191B" stroke-width="0.5" stroke-miterlimit="10" x1="18.85" y1="13.348" x2="22.251" y2="17.411"/>
		</g>
		<g>
			
				<line fill="none" stroke="#17191B" stroke-width="0.5" stroke-miterlimit="10" x1="79.108" y1="79.123" x2="75.369" y2="75.369"/>
			<line fill="none" stroke="#17191B" stroke-width="0.5" stroke-miterlimit="10" x1="15.979" y1="15.979" x2="19.721" y2="19.73"/>
		</g>
		<g>
			<line fill="none" stroke="#17191B" stroke-width="0.5" stroke-miterlimit="10" x1="81.74" y1="76.251" x2="77.688" y2="72.837"/>
			<line fill="none" stroke="#17191B" stroke-width="0.5" stroke-miterlimit="10" x1="13.347" y1="18.85" x2="17.401" y2="22.261"/>
		</g>
		<g>
			<line fill="none" stroke="#17191B" stroke-width="0.5" stroke-miterlimit="10" x1="84.11" y1="73.164" x2="79.776" y2="70.115"/>
			
				<line fill="none" stroke="#17191B" stroke-width="0.5" stroke-miterlimit="10" x1="10.975" y1="21.939" x2="15.313" y2="24.984"/>
		</g>
		<g>
			
				<line fill="none" stroke="#17191B" stroke-width="0.5" stroke-miterlimit="10" x1="86.204" y1="69.878" x2="81.621" y2="67.218"/>
			<line fill="none" stroke="#17191B" stroke-width="0.5" stroke-miterlimit="10" x1="8.882" y1="25.224" x2="13.468" y2="27.879"/>
		</g>
		<g>
			
				<line fill="none" stroke="#17191B" stroke-width="0.5" stroke-miterlimit="10" x1="88.003" y1="66.423" x2="83.205" y2="64.173"/>
			<line fill="none" stroke="#17191B" stroke-width="0.5" stroke-miterlimit="10" x1="7.083" y1="28.679" x2="11.883" y2="30.924"/>
		</g>
		<g>
			
				<line fill="none" stroke="#17191B" stroke-width="0.5" stroke-miterlimit="10" x1="89.494" y1="62.826" x2="84.519" y2="61.003"/>
			<line fill="none" stroke="#17191B" stroke-width="0.5" stroke-miterlimit="10" x1="5.593" y1="32.277" x2="10.57" y2="34.095"/>
		</g>
		<g>
			<line fill="none" stroke="#17191B" stroke-width="0.5" stroke-miterlimit="10" x1="90.666" y1="59.11" x2="85.551" y2="57.729"/>
			<line fill="none" stroke="#17191B" stroke-width="0.5" stroke-miterlimit="10" x1="4.421" y1="35.991" x2="9.538" y2="37.369"/>
		</g>
		<g>
			<line fill="none" stroke="#17191B" stroke-width="0.5" stroke-miterlimit="10" x1="91.51" y1="55.309" x2="86.293" y2="54.378"/>
			<line fill="none" stroke="#17191B" stroke-width="0.5" stroke-miterlimit="10" x1="3.578" y1="39.794" x2="8.795" y2="40.72"/>
		</g>
		<g>
			<line fill="none" stroke="#17191B" stroke-width="0.5" stroke-miterlimit="10" x1="92.019" y1="51.447" x2="86.74" y2="50.974"/>
			<line fill="none" stroke="#17191B" stroke-width="0.5" stroke-miterlimit="10" x1="3.068" y1="43.655" x2="8.348" y2="44.124"/>
		</g>
		<g>
			<line fill="none" stroke="#17191B" stroke-width="0.5" stroke-miterlimit="10" x1="92.188" y1="47.556" x2="86.89" y2="47.545"/>
			<line fill="none" stroke="#17191B" stroke-width="0.5" stroke-miterlimit="10" x1="2.898" y1="47.546" x2="8.198" y2="47.553"/>
		</g>
		<g>
			
				<line fill="none" stroke="#17191B" stroke-width="0.5" stroke-miterlimit="10" x1="92.021" y1="43.665" x2="86.739" y2="44.116"/>
			<line fill="none" stroke="#17191B" stroke-width="0.5" stroke-miterlimit="10" x1="3.068" y1="51.437" x2="8.348" y2="50.981"/>
		</g>
		<g>
			
				<line fill="none" stroke="#17191B" stroke-width="0.5" stroke-miterlimit="10" x1="91.513" y1="39.804" x2="86.291" y2="40.713"/>
			<line fill="none" stroke="#17191B" stroke-width="0.5" stroke-miterlimit="10" x1="3.576" y1="55.298" x2="8.796" y2="54.386"/>
		</g>
		<g>
			
				<line fill="none" stroke="#17191B" stroke-width="0.5" stroke-miterlimit="10" x1="90.669" y1="36.001" x2="85.547" y2="37.362"/>
			<line fill="none" stroke="#17191B" stroke-width="0.5" stroke-miterlimit="10" x1="4.419" y1="59.101" x2="9.539" y2="57.736"/>
		</g>
		<g>
			
				<line fill="none" stroke="#17191B" stroke-width="0.5" stroke-miterlimit="10" x1="89.498" y1="32.286" x2="84.515" y2="34.088"/>
			<line fill="none" stroke="#17191B" stroke-width="0.5" stroke-miterlimit="10" x1="5.59" y1="62.815" x2="10.572" y2="61.009"/>
		</g>
		<g>
			
				<line fill="none" stroke="#17191B" stroke-width="0.5" stroke-miterlimit="10" x1="88.008" y1="28.688" x2="83.201" y2="30.917"/>
			<line fill="none" stroke="#17191B" stroke-width="0.5" stroke-miterlimit="10" x1="7.08" y1="66.416" x2="11.886" y2="64.181"/>
		</g>
		<g>
			<line fill="none" stroke="#17191B" stroke-width="0.5" stroke-miterlimit="10" x1="86.21" y1="25.232" x2="81.615" y2="27.873"/>
			<line fill="none" stroke="#17191B" stroke-width="0.5" stroke-miterlimit="10" x1="8.878" y1="69.871" x2="13.471" y2="67.226"/>
		</g>
		<g>
			
				<line fill="none" stroke="#17191B" stroke-width="0.5" stroke-miterlimit="10" x1="84.118" y1="21.947" x2="79.771" y2="24.979"/>
			
				<line fill="none" stroke="#17191B" stroke-width="0.5" stroke-miterlimit="10" x1="10.971" y1="73.156" x2="15.315" y2="70.121"/>
		</g>
		<g>
			
				<line fill="none" stroke="#17191B" stroke-width="0.5" stroke-miterlimit="10" x1="81.747" y1="18.857" x2="77.683" y2="22.256"/>
			
				<line fill="none" stroke="#17191B" stroke-width="0.5" stroke-miterlimit="10" x1="13.342" y1="76.246" x2="17.405" y2="72.843"/>
		</g>
		<g>
			<line fill="none" stroke="#17191B" stroke-width="0.5" stroke-miterlimit="10" x1="79.116" y1="15.985" x2="75.36" y2="19.726"/>
			
				<line fill="none" stroke="#17191B" stroke-width="0.5" stroke-miterlimit="10" x1="15.973" y1="79.117" x2="19.725" y2="75.375"/>
		</g>
		<g>
			
				<line fill="none" stroke="#17191B" stroke-width="0.5" stroke-miterlimit="10" x1="76.245" y1="13.353" x2="72.831" y2="17.407"/>
			<line fill="none" stroke="#17191B" stroke-width="0.5" stroke-miterlimit="10" x1="18.844" y1="81.75" x2="22.255" y2="77.692"/>
		</g>
		<g>
			
				<line fill="none" stroke="#17191B" stroke-width="0.5" stroke-miterlimit="10" x1="73.155" y1="10.982" x2="70.106" y2="15.318"/>
			
				<line fill="none" stroke="#17191B" stroke-width="0.5" stroke-miterlimit="10" x1="21.934" y1="84.121" x2="24.979" y2="79.783"/>
		</g>
		<g>
			<line fill="none" stroke="#17191B" stroke-width="0.5" stroke-miterlimit="10" x1="69.871" y1="8.889" x2="67.213" y2="13.474"/>
			
				<line fill="none" stroke="#17191B" stroke-width="0.5" stroke-miterlimit="10" x1="25.219" y1="86.212" x2="27.873" y2="81.626"/>
		</g>
		<g>
			<line fill="none" stroke="#17191B" stroke-width="0.5" stroke-miterlimit="10" x1="66.416" y1="7.09" x2="64.168" y2="11.89"/>
			<line fill="none" stroke="#17191B" stroke-width="0.5" stroke-miterlimit="10" x1="28.673" y1="88.012" x2="30.918" y2="83.21"/>
		</g>
		<g>
			<line fill="none" stroke="#17191B" stroke-width="0.5" stroke-miterlimit="10" x1="62.817" y1="5.599" x2="60.996" y2="10.577"/>
			<line fill="none" stroke="#17191B" stroke-width="0.5" stroke-miterlimit="10" x1="32.271" y1="89.503" x2="34.09" y2="84.524"/>
		</g>
		<g>
			<line fill="none" stroke="#17191B" stroke-width="0.5" stroke-miterlimit="10" x1="59.104" y1="4.428" x2="57.724" y2="9.545"/>
			
				<line fill="none" stroke="#17191B" stroke-width="0.5" stroke-miterlimit="10" x1="35.986" y1="90.675" x2="37.363" y2="85.557"/>
		</g>
		<g>
			<line fill="none" stroke="#17191B" stroke-width="0.5" stroke-miterlimit="10" x1="55.302" y1="3.584" x2="54.371" y2="8.802"/>
			<line fill="none" stroke="#17191B" stroke-width="0.5" stroke-miterlimit="10" x1="39.788" y1="91.519" x2="40.715" y2="86.3"/>
		</g>
		<g>
			<line fill="none" stroke="#17191B" stroke-width="0.5" stroke-miterlimit="10" x1="51.44" y1="3.076" x2="50.969" y2="8.354"/>
			<line fill="none" stroke="#17191B" stroke-width="0.5" stroke-miterlimit="10" x1="43.65" y1="92.027" x2="44.117" y2="86.748"/>
		</g>
	</g>
	<g>
		<path fill="#17191B" d="M84.249,47.551l0.006-0.001l-27.092-4.637h0.004l16.335-21.322L52.183,37.926v0.006l-4.639-27.094v0.006
			l-0.001-0.006l-4.638,27.094l0.001-0.007l-21.32-16.334l16.334,21.32l-27.087,4.637h0.006l-0.006,0.001l27.092,4.637h-0.004
			L21.585,73.509l21.321-16.334l-0.001-0.01l4.638,27.096v-0.006l0.001,0.006l4.637-27.092v0.004l21.322,16.336L57.17,52.188
			l27.085-4.637H84.249z M81.286,47.551L48.252,47.55l4.828-4.829l28.211,4.829L81.286,47.551z M47.544,13.808l-0.001,33.033
			l-4.829-4.827l4.829-28.211L47.544,13.808z M13.802,47.549l33.034,0.001l-4.828,4.829L13.797,47.55L13.802,47.549z M47.543,81.292
			l0.001-33.035l4.829,4.828l-4.829,28.211L47.543,81.292z"/>
	</g>
	<g>
		<path fill="none" stroke="#17191B" stroke-miterlimit="10" d="M44.509,16.708c-6.899,0.673-13.615,3.645-18.889,8.918
			s-8.246,11.989-8.918,18.89"/>
		<path fill="none" stroke="#17191B" stroke-miterlimit="10" d="M78.386,44.516c-0.672-6.9-3.644-13.617-8.917-18.891
			c-5.274-5.274-11.989-8.246-18.891-8.918"/>
		<path fill="none" stroke="#17191B" stroke-miterlimit="10" d="M16.702,50.583c0.672,6.899,3.645,13.617,8.918,18.891
			s11.989,8.244,18.889,8.918"/>
		<path fill="none" stroke="#17191B" stroke-miterlimit="10" d="M50.578,78.393c6.899-0.673,13.616-3.646,18.891-8.919
			c5.273-5.273,8.245-11.989,8.917-18.889"/>
	</g>
</g>
<g>
	<g>
		<g>
			<path fill="#BE1E2D" d="M54.004,46.112L47.545,1.168l-6.461,44.949c-0.101,0.46-0.16,0.937-0.16,1.428
				c0,3.656,2.965,6.619,6.619,6.619c3.655,0,6.621-2.963,6.621-6.619C54.164,47.053,54.106,46.574,54.004,46.112z"/>
		</g>
	</g>
	<g>
		<g>
			
				<linearGradient id="SVGID_1_" gradientUnits="userSpaceOnUse" x1="272.5439" y1="-78.832" x2="272.5439" y2="-25.8369" gradientTransform="matrix(1 0 0 -1 -225 15.0889)">
				<stop  offset="0" style="stop-color:#C8C8C8"/>
				<stop  offset="0.1911" style="stop-color:#C3C3C3"/>
				<stop  offset="0.43" style="stop-color:#B3B4B5"/>
				<stop  offset="0.6944" style="stop-color:#9A9C9E"/>
				<stop  offset="0.9754" style="stop-color:#767A7E"/>
				<stop  offset="1" style="stop-color:#73777B"/>
			</linearGradient>
			<path fill="url(#SVGID_1_)" d="M47.543,40.926c-3.654,0-6.619,2.964-6.619,6.619c0,0.491,0.059,0.968,0.16,1.428l6.461,44.948
				l6.459-44.943c0.103-0.462,0.16-0.94,0.16-1.433C54.164,43.89,51.198,40.926,47.543,40.926z M51.518,51.519
				c-1.061,1.061-2.473,1.645-3.975,1.645c-1.5,0-2.91-0.584-3.973-1.645c-1.06-1.062-1.646-2.473-1.646-3.974
				c0-1.501,0.586-2.912,1.646-3.974c1.063-1.061,2.473-1.646,3.973-1.646c1.502,0,2.914,0.585,3.975,1.646
				c1.063,1.062,1.646,2.473,1.646,3.974C53.164,49.046,52.58,50.457,51.518,51.519z"/>
		</g>
	</g>
</g>
</svg>
