<?xml version="1.0" encoding="utf-8"?>
<!-- Generator: Adobe Illustrator 15.1.0, SVG Export Plug-In . SVG Version: 6.00 Build 0)  -->
<!DOCTYPE svg PUBLIC "-//W3C//DTD SVG 1.1//EN" "http://www.w3.org/Graphics/SVG/1.1/DTD/svg11.dtd">
<svg version="1.1" id="Layer_1" xmlns="http://www.w3.org/2000/svg" xmlns:xlink="http://www.w3.org/1999/xlink" x="0px" y="0px"
	 width="89.292px" height="89.291px" viewBox="0 0 89.292 89.291" enable-background="new 0 0 89.292 89.291" xml:space="preserve">
<g>
	<line fill="none" stroke="#FFFFFF" stroke-width="0.75" stroke-miterlimit="10" x1="33.092" y1="1.521" x2="33.553" y2="3.246"/>
	<line fill="none" stroke="#FFFFFF" stroke-width="0.75" stroke-miterlimit="10" x1="22.324" y1="5.981" x2="23.216" y2="7.528"/>
	<line fill="none" stroke="#FFFFFF" stroke-width="0.75" stroke-miterlimit="10" x1="13.078" y1="13.076" x2="14.34" y2="14.339"/>
	<line fill="none" stroke="#FFFFFF" stroke-width="0.75" stroke-miterlimit="10" x1="5.982" y1="22.322" x2="7.528" y2="23.216"/>
	<line fill="none" stroke="#FFFFFF" stroke-width="0.75" stroke-miterlimit="10" x1="1.522" y1="33.089" x2="3.246" y2="33.552"/>
	<line fill="none" stroke="#FFFFFF" stroke-width="0.75" stroke-miterlimit="10" x1="1.522" y1="56.199" x2="3.247" y2="55.739"/>
	<line fill="none" stroke="#FFFFFF" stroke-width="0.75" stroke-miterlimit="10" x1="5.981" y1="66.966" x2="7.528" y2="66.076"/>
	<line fill="none" stroke="#FFFFFF" stroke-width="0.75" stroke-miterlimit="10" x1="13.076" y1="76.213" x2="14.34" y2="74.952"/>
	<line fill="none" stroke="#FFFFFF" stroke-width="0.75" stroke-miterlimit="10" x1="22.322" y1="83.308" x2="23.217" y2="81.762"/>
	<line fill="none" stroke="#FFFFFF" stroke-width="0.75" stroke-miterlimit="10" x1="33.09" y1="87.769" x2="33.554" y2="86.044"/>
	<line fill="none" stroke="#FFFFFF" stroke-width="0.75" stroke-miterlimit="10" x1="56.199" y1="87.77" x2="55.739" y2="86.043"/>
	<line fill="none" stroke="#FFFFFF" stroke-width="0.75" stroke-miterlimit="10" x1="66.968" y1="83.309" x2="66.076" y2="81.762"/>
	<line fill="none" stroke="#FFFFFF" stroke-width="0.75" stroke-miterlimit="10" x1="76.214" y1="76.214" x2="74.952" y2="74.951"/>
	<line fill="none" stroke="#FFFFFF" stroke-width="0.75" stroke-miterlimit="10" x1="83.309" y1="66.968" x2="81.764" y2="66.075"/>
	<line fill="none" stroke="#FFFFFF" stroke-width="0.75" stroke-miterlimit="10" x1="87.77" y1="56.202" x2="86.045" y2="55.738"/>
	<line fill="none" stroke="#FFFFFF" stroke-miterlimit="10" x1="44.641" y1="89.29" x2="44.651" y2="83.99"/>
	<line fill="none" stroke="#FFFFFF" stroke-miterlimit="10" x1="44.649" y1="0" x2="44.643" y2="5.299"/>
	<line fill="none" stroke="#FFFFFF" stroke-width="0.75" stroke-miterlimit="10" x1="87.77" y1="33.091" x2="86.045" y2="33.551"/>
	<line fill="none" stroke="#FFFFFF" stroke-width="0.75" stroke-miterlimit="10" x1="83.31" y1="22.324" x2="81.763" y2="23.214"/>
	<line fill="none" stroke="#FFFFFF" stroke-width="0.75" stroke-miterlimit="10" x1="76.215" y1="13.078" x2="74.951" y2="14.337"/>
	<line fill="none" stroke="#FFFFFF" stroke-width="0.75" stroke-miterlimit="10" x1="66.969" y1="5.982" x2="66.074" y2="7.527"/>
	<line fill="none" stroke="#FFFFFF" stroke-width="0.75" stroke-miterlimit="10" x1="56.202" y1="1.522" x2="55.737" y2="3.246"/>
	<line fill="none" stroke="#FFFFFF" stroke-miterlimit="10" x1="0.001" y1="44.639" x2="5.301" y2="44.65"/>
	<line fill="none" stroke="#FFFFFF" stroke-miterlimit="10" x1="89.291" y1="44.648" x2="83.991" y2="44.642"/>
</g>
</svg>
