<?xml version="1.0" encoding="utf-8"?>
<!-- Generator: Adobe Illustrator 15.1.0, SVG Export Plug-In . SVG Version: 6.00 Build 0)  -->
<!DOCTYPE svg PUBLIC "-//W3C//DTD SVG 1.1//EN" "http://www.w3.org/Graphics/SVG/1.1/DTD/svg11.dtd">
<svg version="1.1" id="Layer_1" xmlns="http://www.w3.org/2000/svg" xmlns:xlink="http://www.w3.org/1999/xlink" x="0px" y="0px"
	 width="32px" height="32px" viewBox="0 0 32 32" enable-background="new 0 0 32 32" xml:space="preserve">
<g>
	<g>
		<linearGradient id="SVGID_1_" gradientUnits="userSpaceOnUse" x1="16.0005" y1="31.6245" x2="16.0005" y2="0.3755">
			<stop  offset="0" style="stop-color:#313539"/>
			<stop  offset="1" style="stop-color:#484E55"/>
		</linearGradient>
		<path fill="url(#SVGID_1_)" d="M16,31.625C7.384,31.625,0.375,24.616,0.375,16S7.384,0.375,16,0.375
			c8.615,0,15.625,7.009,15.625,15.625S24.615,31.625,16,31.625z"/>
		<path fill="#17191B" d="M16,0.75c8.409,0,15.25,6.841,15.25,15.25S24.409,31.25,16,31.25C7.591,31.25,0.75,24.409,0.75,16
			S7.591,0.75,16,0.75 M16,0C7.163,0,0,7.164,0,16c0,8.837,7.163,16,16,16s16-7.163,16-16S24.837,0,16,0L16,0z"/>
	</g>
	<path fill="#C8C8C8" d="M10.325,10.324L8.896,8.896L7.328,14.75l5.854-1.569l-1.428-1.429c2.527-2.526,6.639-2.526,9.167,0
		c2.526,2.527,2.526,6.639,0,9.167c-2.527,2.527-6.64,2.526-9.167,0l-1.428,1.428c3.314,3.315,8.708,3.315,12.022,0
		c3.315-3.314,3.315-8.708,0-12.023C19.033,7.01,13.64,7.01,10.325,10.324z"/>
</g>
</svg>
